<svg xmlns="http://www.w3.org/2000/svg" viewBox="0 0 64 64" role="img" aria-label="PENTANEX PX icon">
  <rect width="64" height="64" rx="14" fill="#eef7f7"/>
  <path
    d="M32 7.5 55 24.4 46.4 56H17.6L9 24.4 32 7.5Z"
    fill="#f8fffe"
    stroke="#0faea6"
    stroke-linejoin="round"
    stroke-width="4.2"
  />
  <path
    d="M18.2 26.3h13.2c5.1 0 8.2 2.8 8.2 7.1 0 4.5-3.2 7.1-8.3 7.1h-7.7v8.1h-5.4V26.3Zm12.9 9.6c2 0 3.1-.8 3.1-2.4 0-1.6-1.1-2.4-3.1-2.4h-7.5v4.8h7.5Z"
    fill="#00bfb2"
  />
  <path
    d="m39.8 26.3 5.1 6.7 5-6.7h6.2l-8 10.4 8.8 11.9h-6.4l-5.8-7.8-5.8 7.8h-6.3l8.9-11.7-8.1-10.6h6.4Z"
    fill="#00bfb2"
  />
</svg>
